<svg width="242" height="209" viewBox="0 0 242 209" fill="none" xmlns="http://www.w3.org/2000/svg">
<circle cx="109.138" cy="131.138" r="68.1803" fill="#181818"/>
<path d="M123.311 94.4491C128.311 90.2988 135.776 94.6087 134.682 101.014L130.974 122.719C130.63 124.732 131.183 126.796 132.488 128.368L146.551 145.311C150.702 150.311 146.392 157.776 139.986 156.682L118.282 152.974C116.268 152.63 114.204 153.183 112.632 154.488L95.6897 168.551C90.6895 172.701 83.2246 168.391 84.3188 161.986L88.0264 140.281C88.3704 138.268 87.8175 136.204 86.5126 134.632L72.4495 117.689C68.2993 112.689 72.6091 105.224 79.0145 106.318L100.719 110.026C102.733 110.37 104.796 109.817 106.368 108.512L123.311 94.4491Z" fill="#C7C6F8"/>
<path d="M20.2882 115.997C20.5772 115.197 20.7428 114.436 20.785 113.715C20.8322 112.98 20.776 112.316 20.6163 111.722C20.443 111.123 20.1817 110.616 19.8326 110.201C19.4748 109.767 19.0422 109.454 18.5348 109.261C17.8492 109.001 17.1512 108.948 16.4407 109.102C15.7303 109.256 15.0722 109.61 14.4666 110.164C13.8609 110.719 13.3837 111.479 13.0349 112.444C12.701 113.368 12.5691 114.252 12.639 115.094C12.7003 115.917 12.9398 116.635 13.3575 117.249C13.7802 117.848 14.3686 118.291 15.1228 118.577L15.7282 116.901C15.3031 116.74 14.9733 116.466 14.7389 116.079C14.5045 115.692 14.3735 115.234 14.346 114.706C14.3234 114.165 14.4168 113.604 14.6261 113.025C14.8503 112.404 15.1332 111.923 15.4746 111.582C15.8211 111.227 16.2099 111.014 16.6412 110.942C17.0587 110.866 17.4938 110.913 17.9463 111.085C18.3988 111.257 18.7672 111.553 19.0515 111.975C19.322 112.391 19.4792 112.906 19.5229 113.518C19.553 114.126 19.431 114.809 19.1569 115.568L20.2882 115.997ZM27.8142 118.148C28.2029 117.072 28.3697 116.092 28.3146 115.208C28.2646 114.311 28.0102 113.548 27.5513 112.919C27.0975 112.276 26.466 111.801 25.657 111.494C24.6971 111.13 23.8371 111.093 23.0768 111.385C22.3028 111.672 21.6217 112.197 21.0335 112.962C20.4454 113.727 19.957 114.648 19.5683 115.724L20.6996 116.153C20.9736 115.394 21.3206 114.758 21.7406 114.242C22.1468 113.722 22.611 113.365 23.1333 113.171C23.6555 112.977 24.2114 112.992 24.801 113.216C25.5826 113.513 26.1094 114.018 26.3813 114.733C26.6532 115.448 26.5823 116.378 26.1687 117.523C25.8947 118.282 25.5651 118.87 25.18 119.289C24.7999 119.694 24.3843 119.959 23.9331 120.086C23.4869 120.199 23.0276 120.197 22.5551 120.081L21.9123 121.86C22.4745 122.074 23.0423 122.164 23.6157 122.13C24.1803 122.078 24.7275 121.901 25.2572 121.6C25.7732 121.294 26.2511 120.856 26.691 120.286C27.1308 119.716 27.5053 119.003 27.8142 118.148Z" fill="black"/>
<path d="M29.7624 104.356C29.4113 104.143 29.1562 103.877 28.9971 103.558C28.838 103.238 28.7811 102.87 28.8266 102.452C28.8791 102.021 29.0464 101.548 29.3285 101.034C29.6389 100.468 29.9927 100.006 30.39 99.6469C30.7748 99.2805 31.2376 98.97 31.7784 98.7153L30.8943 98.1791C30.7321 98.2006 30.4962 98.2803 30.1866 98.4182C29.8645 98.5484 29.5216 98.7774 29.158 99.1052C28.7889 99.4126 28.4491 99.8492 28.1388 100.415C27.7156 101.187 27.468 101.928 27.3959 102.638C27.3112 103.341 27.3975 103.976 27.6546 104.543C27.9116 105.11 28.3474 105.58 28.9619 105.953C29.5512 106.31 30.1206 106.476 30.67 106.449C31.2139 106.402 31.7132 106.208 32.1677 105.867C32.6223 105.525 33.0012 105.078 33.3045 104.525C33.643 103.908 33.8495 103.288 33.924 102.665C33.9859 102.034 33.9036 101.453 33.6771 100.921C33.4451 100.369 33.0532 99.9256 32.5014 99.5909L31.3916 99.3291C31.9309 99.6561 32.3 100.034 32.4991 100.464C32.7052 100.88 32.7742 101.333 32.706 101.823C32.6379 102.313 32.4627 102.815 32.1806 103.329C31.9901 103.677 31.7672 103.961 31.5117 104.183C31.2437 104.398 30.9635 104.528 30.6711 104.573C30.3663 104.611 30.0634 104.539 29.7624 104.356ZM25.6806 101.88C25.6579 101.678 25.6446 101.413 25.6407 101.085C25.6312 100.736 25.6716 100.358 25.7617 99.9499C25.8393 99.5343 25.9945 99.1143 26.2272 98.6899C26.4952 98.2013 26.8444 97.8389 27.2746 97.6029C27.6994 97.3465 28.1313 97.3513 28.5701 97.6176L34.7774 101.383L35.6238 99.8397L29.4165 96.0744C28.8522 95.7321 28.2946 95.591 27.7436 95.6509C27.1997 95.698 26.6864 95.9179 26.2036 96.3106C25.7154 96.6828 25.2843 97.2097 24.9105 97.8912C24.4732 98.6885 24.2185 99.4423 24.1464 100.153C24.0744 100.863 24.0658 101.458 24.1206 101.936L25.6806 101.88Z" fill="black"/>
<path d="M35.8605 81.1204L30.8737 87.6926L38.5218 94.3198L39.5857 92.9177L33.1845 87.371L36.0436 83.603L42.4448 89.1496L43.5086 87.7476L35.8605 81.1204Z" fill="black"/>
<path d="M48.9756 70.6457L47.4657 68.6017L47.1422 81.4639L48.6521 83.5079L48.9756 70.6457ZM43.0857 73.8233L41.81 75.0357L48.6521 83.5079L48.4073 80.4127L43.0857 73.8233ZM47.4657 68.6017L47.7104 71.6969L53.0321 78.2863L54.3078 77.0739L47.4657 68.6017Z" fill="black"/>
<path d="M57.7381 67.0721C57.3905 66.4599 57.2036 65.8346 57.1773 65.1962C57.1558 64.5368 57.2803 63.9275 57.551 63.3684C57.8337 62.801 58.2469 62.33 58.7903 61.9556C59.2372 61.6477 59.6973 61.4371 60.1707 61.3239C60.6489 61.1896 61.1017 61.1438 61.5291 61.1864C61.9565 61.229 62.3139 61.3554 62.6012 61.5656L61.5152 59.6523C61.0226 59.4949 60.4502 59.5077 59.7982 59.6909C59.1509 59.8529 58.5435 60.1295 57.9758 60.5206C57.1666 61.0782 56.5482 61.7793 56.1204 62.6241C55.6927 63.4689 55.4811 64.3688 55.4856 65.3238C55.5021 66.2706 55.7638 67.1904 56.2707 68.0832C56.7702 68.9633 57.4063 69.6251 58.1789 70.0687C58.9564 70.4912 59.7834 70.6754 60.66 70.6215C61.5367 70.5675 62.3796 70.2618 63.1888 69.7043C63.7564 69.3131 64.2516 68.8389 64.6744 68.2814C65.1021 67.7028 65.3595 67.1351 65.4466 66.5783L64.3606 64.665C64.3991 65.0289 64.3458 65.4382 64.2007 65.893C64.0485 66.3351 63.8165 66.7699 63.5048 67.1976C63.198 67.6042 62.8211 67.9614 62.3742 68.2693C61.8308 68.6438 61.2656 68.8469 60.6788 68.8786C60.0968 68.8892 59.545 68.746 59.0235 68.4488C58.5141 68.1433 58.0856 67.6844 57.7381 67.0721Z" fill="black"/>
<path d="M70.2773 61.0051C70.1293 60.622 70.0881 60.2519 70.1537 59.8947C70.2194 59.5375 70.3945 59.2 70.6791 58.8824C70.9768 58.5583 71.3893 58.2677 71.9166 58.0105C72.4966 57.7276 73.0491 57.5557 73.5739 57.4948C74.0934 57.4202 74.6407 57.4378 75.2158 57.5475L74.8431 56.5831C74.7032 56.5049 74.4711 56.4312 74.1466 56.3618C73.8168 56.2788 73.4119 56.2649 72.932 56.3202C72.4599 56.3553 71.9338 56.5143 71.3538 56.7973C70.5629 57.183 69.9276 57.6474 69.4481 58.1902C68.9632 58.7194 68.6525 59.2937 68.5158 59.9131C68.3792 60.5326 68.4404 61.1775 68.6995 61.8479C68.9479 62.4909 69.2952 62.9637 69.7412 63.2665C70.195 63.5491 70.7016 63.6842 71.2607 63.6716C71.8199 63.659 72.3828 63.5145 72.9497 63.238C73.5824 62.9294 74.1135 62.5402 74.5431 62.0706C74.9673 61.5872 75.2491 61.0596 75.3884 60.4876C75.5356 59.8955 75.4929 59.2985 75.2603 58.6965L74.5474 57.8248C74.7747 58.4131 74.8385 58.9429 74.7386 59.4143C74.652 59.8793 74.4361 60.2936 74.0909 60.6571C73.7456 61.0206 73.3094 61.3309 72.7821 61.5881C72.4262 61.7617 72.0821 61.8645 71.7498 61.8965C71.4122 61.9149 71.1154 61.8564 70.8595 61.7211C70.5982 61.5721 70.4042 61.3334 70.2773 61.0051ZM68.5565 56.552C68.6592 56.3718 68.8067 56.1454 68.9991 55.8727C69.1993 55.58 69.4562 55.2921 69.7698 55.009C70.0781 54.7123 70.4498 54.4578 70.8848 54.2457C71.3857 54.0013 71.8749 53.9091 72.3524 53.9688C72.8377 54.0085 73.1729 54.2678 73.3579 54.7466L75.9748 61.5186L77.5566 60.747L74.9398 53.975C74.7019 53.3594 74.3494 52.9135 73.8823 52.6373C73.4284 52.3546 72.8955 52.2324 72.2837 52.2707C71.6797 52.2889 71.0284 52.4684 70.3297 52.8092C69.5124 53.2078 68.864 53.6786 68.3844 54.2214C67.9049 54.7643 67.5439 55.2492 67.3016 55.6763L68.5565 56.552Z" fill="black"/>
<path d="M78.8296 48.9969L79.2466 50.5933L84.8589 48.6476L84.4419 47.0511L78.8296 48.9969ZM80.9155 48.738L83.3618 58.1038L85.0247 57.5273L82.5784 48.1615L80.9155 48.738Z" fill="black"/>
<path d="M88.528 45.5598L89.9354 55.5814L91.6581 55.2212L90.2507 45.1995L88.528 45.5598ZM90.2866 50.664L93.366 50.02C93.9977 49.8879 94.4908 49.9269 94.8454 50.1368C95.2 50.3467 95.413 50.7058 95.4844 51.2142C95.5313 51.5482 95.5003 51.8537 95.3914 52.1306C95.2805 52.393 95.0906 52.6196 94.8219 52.8104C94.5654 52.9836 94.229 53.1138 93.8127 53.2008L90.7333 53.8447L90.9475 55.3698L94.0269 54.7259C94.716 54.5818 95.318 54.3437 95.8329 54.0118C96.3479 53.6799 96.7306 53.2485 96.9812 52.7177C97.2317 52.1868 97.3071 51.5656 97.2071 50.8539C97.0562 49.7791 96.5943 49.0684 95.8215 48.7217C95.061 48.3574 94.1711 48.2818 93.1519 48.495L90.0725 49.1389L90.2866 50.664Z" fill="black"/>
<path d="M103.608 48.7829C103.608 48.0789 103.755 47.4488 104.049 46.8926C104.357 46.3211 104.768 45.8695 105.281 45.5378C105.808 45.2054 106.402 45.024 107.061 44.9936C107.603 44.9686 108.109 45.0332 108.577 45.1876C109.061 45.3266 109.478 45.5273 109.829 45.7898C110.181 46.0522 110.43 46.3487 110.576 46.6793L110.578 44.4793C110.226 44.0848 109.721 43.7928 109.062 43.6033C108.418 43.3984 107.751 43.3118 107.063 43.3436C106.081 43.3889 105.194 43.6572 104.403 44.1484C103.611 44.6396 102.981 45.292 102.511 46.1056C102.056 46.9186 101.829 47.8384 101.828 48.8651C101.827 49.8771 102.053 50.7759 102.507 51.5616C102.975 52.332 103.604 52.9262 104.395 53.3444C105.186 53.7625 106.072 53.9489 107.054 53.9036C107.742 53.8718 108.409 53.731 109.054 53.4813C109.713 53.2162 110.219 52.8702 110.571 52.4433L110.573 50.2433C110.426 50.5727 110.177 50.8922 109.825 51.2018C109.473 51.4967 109.055 51.7433 108.572 51.9416C108.103 52.1246 107.597 52.2286 107.055 52.2536C106.396 52.284 105.803 52.1574 105.275 51.8738C104.763 51.5748 104.353 51.1611 104.046 50.6326C103.753 50.1035 103.607 49.4869 103.608 48.7829Z" fill="black"/>
<path d="M117.164 53.5401L121.606 48.7388L119.683 48.517L115.241 53.3183L117.164 53.5401ZM123.546 54.2761L124.939 44.2524L123.191 44.0508L121.797 54.0744L123.546 54.2761ZM123.288 48.6228L120.163 48.2624C119.74 48.2137 119.39 48.1216 119.113 47.9864C118.852 47.8382 118.664 47.6468 118.549 47.4121C118.433 47.1774 118.399 46.893 118.445 46.5588C118.492 46.2247 118.603 45.9571 118.779 45.756C118.955 45.5549 119.188 45.4195 119.479 45.3497C119.787 45.2671 120.152 45.2502 120.574 45.2989L123.7 45.6593L123.912 44.134L120.787 43.7735C120.102 43.6946 119.461 43.724 118.865 43.8619C118.283 44.0014 117.801 44.2706 117.42 44.6694C117.039 45.0682 116.798 45.6308 116.697 46.3572C116.598 47.069 116.677 47.6686 116.935 48.1559C117.195 48.6287 117.588 48.9987 118.113 49.2659C118.653 49.5348 119.266 49.7087 119.951 49.7877L123.076 50.1481L123.288 48.6228Z" fill="black"/>
<path d="M137.465 52.8226L144.413 55.5936L144.995 54.0498L138.047 51.2788L137.465 52.8226ZM145.33 49.921L141.758 59.3895L143.393 60.0415L146.965 50.573L145.33 49.921ZM138.485 47.1906L134.912 56.6592L136.547 57.3112L140.119 47.8427L138.485 47.1906Z" fill="black"/>
<path d="M150.824 60.461C151.024 60.1023 151.277 59.845 151.582 59.689C151.887 59.5331 152.241 59.4848 152.644 59.5444C153.059 59.6116 153.517 59.7994 154.016 60.1077C154.565 60.4469 155.015 60.8283 155.366 61.2518C155.724 61.6625 156.029 62.1526 156.282 62.7222L156.786 61.8191C156.763 61.6499 156.682 61.4023 156.545 61.0765C156.416 60.7379 156.19 60.3748 155.87 59.9872C155.568 59.5945 155.143 59.2286 154.594 58.8894C153.846 58.4269 153.129 58.1477 152.444 58.0519C151.767 57.9433 151.157 58.0142 150.614 58.2647C150.072 58.5153 149.626 58.9543 149.276 59.582C148.94 60.184 148.789 60.771 148.822 61.3428C148.875 61.9094 149.069 62.434 149.404 62.9165C149.739 63.399 150.175 63.8059 150.711 64.1374C151.31 64.5074 151.91 64.7403 152.511 64.836C153.119 64.9189 153.678 64.8504 154.186 64.6306C154.714 64.4057 155.135 64.0115 155.449 63.4479L155.686 62.3022C155.379 62.853 155.02 63.2255 154.61 63.4198C154.212 63.6218 153.777 63.6802 153.304 63.5949C152.831 63.5096 152.346 63.3128 151.847 63.0045C151.51 62.7963 151.233 62.5562 151.015 62.2842C150.805 61.9993 150.676 61.7043 150.628 61.3991C150.587 61.0811 150.653 60.7684 150.824 60.461ZM153.149 56.2915C153.344 56.2738 153.599 56.2678 153.914 56.2733C154.25 56.2738 154.614 56.3269 155.008 56.4325C155.409 56.5254 155.816 56.699 156.228 56.9534C156.702 57.2463 157.056 57.6199 157.289 58.074C157.542 58.523 157.543 58.9717 157.293 59.42L153.757 65.7607L155.254 66.6858L158.79 60.3451C159.112 59.7687 159.24 59.1932 159.174 58.6189C159.121 58.0522 158.902 57.5122 158.517 56.9989C158.152 56.4805 157.639 56.017 156.978 55.6084C156.204 55.1305 155.475 54.8436 154.79 54.7478C154.106 54.652 153.533 54.6255 153.073 54.6685L153.149 56.2915Z" fill="black"/>
<path d="M177.383 71.528L171.634 65.6108L164.913 73.1768L166.139 74.4392L171.764 68.1067L175.061 71.4993L169.435 77.8317L170.662 79.094L177.383 71.528Z" fill="black"/>
<path d="M171.562 88.1216L183.175 78.6915L182.186 77.236L170.572 86.6661L171.562 88.1216ZM184.009 88.8856C184.863 88.1922 185.464 87.4125 185.812 86.5465C186.171 85.6713 186.301 84.7842 186.203 83.8854C186.112 82.9987 185.807 82.1733 185.288 81.4092C184.818 80.7179 184.236 80.2394 183.543 79.9738C182.859 79.7204 182.106 79.6917 181.285 79.8877C180.483 80.0866 179.656 80.5328 178.802 81.2261C177.959 81.9103 177.329 82.6475 176.912 83.4379C176.504 84.2403 176.312 85.0364 176.336 85.826C176.369 86.6278 176.62 87.3744 177.09 88.0657C177.61 88.8299 178.245 89.3872 178.995 89.7376C179.754 90.1002 180.569 90.2199 181.44 90.0967C182.31 89.9734 183.167 89.5697 184.009 88.8856ZM183.007 87.4119C182.404 87.9019 181.801 88.1845 181.198 88.2598C180.604 88.3471 180.05 88.2603 179.537 87.9993C179.032 87.7505 178.602 87.3653 178.247 86.8437C177.959 86.4192 177.782 85.9129 177.718 85.3249C177.654 84.7368 177.742 84.1384 177.982 83.5295C178.222 82.9206 178.644 82.3711 179.247 81.8811C179.85 81.3911 180.454 81.1085 181.056 81.0333C181.659 80.958 182.209 81.0388 182.705 81.2755C183.202 81.5122 183.595 81.8428 183.883 82.2674C184.238 82.7889 184.451 83.3498 184.524 83.9499C184.604 84.5622 184.52 85.1668 184.272 85.7636C184.032 86.3725 183.611 86.9219 183.007 87.4119Z" fill="black"/>
<path d="M193.333 100.49L195.587 99.357L184.188 96.1807L181.934 97.3133L193.333 100.49ZM192.165 93.6118L191.443 92.0065L181.934 97.3133L184.768 97.7393L192.165 93.6118ZM195.587 99.357L192.753 98.9309L185.357 103.058L186.078 104.664L195.587 99.357Z" fill="black"/>
<path d="M192.819 110.065L195.033 118.423C195.12 118.408 195.205 118.386 195.288 118.357C195.371 118.328 195.454 118.298 195.537 118.269C196.547 117.915 197.361 117.42 197.979 116.784C198.612 116.144 199.036 115.406 199.253 114.571C199.471 113.735 199.457 112.857 199.213 111.935C198.991 111.099 198.624 110.398 198.112 109.835C197.603 109.285 196.995 108.902 196.287 108.685C195.58 108.469 194.812 108.428 193.986 108.563C193.812 108.593 193.641 108.63 193.471 108.674C193.301 108.718 193.126 108.772 192.946 108.835C191.991 109.17 191.186 109.67 190.53 110.334C189.892 111.007 189.45 111.767 189.205 112.612C188.964 113.471 188.96 114.341 189.193 115.22C189.418 116.07 189.703 116.745 190.047 117.244C190.405 117.738 190.816 118.121 191.281 118.392C191.76 118.657 192.285 118.868 192.855 119.024L193.34 117.343C192.938 117.252 192.566 117.104 192.224 116.898C191.896 116.688 191.605 116.418 191.352 116.089C191.115 115.769 190.934 115.368 190.806 114.886C190.637 114.248 190.622 113.649 190.761 113.089C190.9 112.528 191.191 112.031 191.636 111.596C192.08 111.161 192.669 110.815 193.403 110.558L194.037 110.381C194.632 110.173 195.18 110.128 195.68 110.246C196.198 110.375 196.637 110.631 196.996 111.017C197.355 111.402 197.61 111.878 197.76 112.445C197.91 113.012 197.925 113.526 197.805 113.987C197.703 114.456 197.486 114.866 197.155 115.214C196.841 115.572 196.443 115.867 195.96 116.099L194.23 109.57L192.819 110.065Z" fill="black"/>
<path d="M193.58 135.03L193.758 137.002L204.287 132.737L201.37 132.181L193.58 135.03ZM194.604 129.544L192.488 130.531L200.826 133.485L204.287 132.737L194.604 129.544ZM192.488 130.531L194.723 130.858L203.577 124.915L200.077 125.225L192.488 130.531ZM192.573 123.922L192.751 125.894L200.839 126.331L203.577 124.915L192.573 123.922Z" fill="black"/>
</svg>
