<svg width="600" height="595" viewBox="0 0 600 595" fill="none" xmlns="http://www.w3.org/2000/svg">
<path d="M506.525 594H80.2373L122.866 532.685H463.896L506.525 594Z" fill="#181818" stroke="#263238" stroke-width="0.510854" stroke-linecap="round" stroke-linejoin="round"/>
<path d="M521.328 511.633C521.328 511.633 478.203 445.865 484.626 430.77C491.05 415.675 513.824 441.559 513.824 441.559C513.824 441.559 480.392 353.148 503.035 333.731C525.678 314.315 533.226 413.529 533.226 413.529C533.226 413.529 553.664 356.374 569.883 377.937C586.103 399.499 545.065 444.785 545.065 444.785C545.065 444.785 573.095 445.865 565.504 464.201C557.912 482.538 537.474 501.939 537.474 501.939L521.328 511.633Z" fill="#F1E3CF"/>
<path d="M509.445 496.538C509.445 496.538 483.576 459.88 496.51 452.332C509.445 444.785 515.912 467.428 515.912 467.428C515.912 467.428 516.993 368.243 537.489 375.791C557.986 383.338 550.424 443.705 550.424 443.705C550.424 443.705 576.293 426.463 575.242 451.252C574.191 476.041 539.65 497.647 539.65 497.647" stroke="#263238" stroke-width="0.510854" stroke-linecap="round" stroke-linejoin="round"/>
<path d="M533.183 498.698L510.54 473.895" stroke="#263238" stroke-width="0.510854" stroke-linecap="round" stroke-linejoin="round"/>
<path d="M534.263 510.553L533.183 449.106" stroke="#263238" stroke-width="0.510854" stroke-linecap="round" stroke-linejoin="round"/>
<path d="M535.343 490.071L555.825 463.121" stroke="#263238" stroke-width="0.510854" stroke-linecap="round" stroke-linejoin="round"/>
<path d="M553.664 492.231H496.524L502.233 542.904H547.956L553.664 492.231Z" fill="#263238" stroke="#263238" stroke-width="0.510854" stroke-linecap="round" stroke-linejoin="round"/>
<path d="M62.9233 511.633C62.9233 511.633 19.7982 445.866 26.2218 430.77C32.6453 415.675 55.4195 441.559 55.4195 441.559C55.4195 441.559 21.9443 353.119 44.5871 333.732C67.23 314.344 74.7776 413.529 74.7776 413.529C74.7776 413.529 95.216 356.374 111.435 377.937C127.655 399.499 86.6173 444.785 86.6173 444.785C86.6173 444.785 114.647 445.865 107.056 464.202C99.4643 482.538 79.0259 501.94 79.0259 501.94L62.9233 511.633Z" fill="#F9F1E7"/>
<path d="M54.1785 497.355C54.1785 497.355 27.3749 472.172 26.5574 460.858C25.7399 449.544 43.6235 463.296 50.9229 468.158C58.2223 473.019 32.2509 436.478 33.0539 409.675C33.8568 382.871 48.4849 393.441 53.3609 404.813C58.2369 416.186 60.6604 426.711 63.113 429.179C65.5656 431.646 69.6095 410.492 80.1645 416.171C97.0408 425.266 69.6095 455.968 75.2884 461.661C80.9674 467.355 93.975 437.296 100.471 453.544C106.968 469.793 79.3469 499.02 79.3469 499.02" stroke="#263238" stroke-width="0.510854" stroke-linecap="round" stroke-linejoin="round"/>
<path d="M71.2299 495.72L50.9229 434.814" stroke="#263238" stroke-width="0.510854" stroke-linecap="round" stroke-linejoin="round"/>
<path d="M60.6748 464.858L68.7918 446.186" stroke="#263238" stroke-width="0.510854" stroke-linecap="round" stroke-linejoin="round"/>
<path d="M44.4268 477.048L67.1718 482.727L78.5443 474.61" stroke="#263238" stroke-width="0.510854" stroke-linecap="round" stroke-linejoin="round"/>
<path d="M95.2601 492.231H38.1201L43.8283 542.904H89.5519L95.2601 492.231Z" fill="#263238" stroke="#263238" stroke-width="0.510854" stroke-linecap="round" stroke-linejoin="round"/>
<path d="M259.322 353.119C259.322 353.119 237.905 355.06 230.124 341.439C222.343 327.819 235.963 311.264 221.365 305.424C206.766 299.584 189.247 319.059 160.049 302.504C130.851 285.949 146.414 264.547 154.21 248.007C162.005 231.466 165.889 223.67 147.392 212.969C128.895 202.268 108.457 171.114 121.114 140.953C133.771 110.792 165.889 124.398 182.429 108.836C198.97 93.2731 184.371 74.7618 183.407 49.4619C182.444 24.1621 216.489 4.68716 249.584 9.56318C282.68 14.4392 289.483 49.4619 289.483 71.842C289.483 94.2221 324.52 100.076 341.075 74.7618C357.63 49.4473 371.237 43.6224 395.573 54.3233C419.909 65.0243 399.471 101.04 411.15 106.879C422.829 112.719 432.552 84.4992 467.589 101.04C502.626 117.58 483.166 161.377 465.647 172.092C440.158 187.699 470.217 217.962 475.049 236.488C482.13 263.569 460.334 285.234 433.53 284.022C390.711 282.066 379.996 275.263 371.237 287.905C362.477 300.548 389.733 303.482 385.835 323.921C381.938 344.359 374.156 352.14 356.638 352.14C339.119 352.14 328.418 336.578 309.921 344.359C291.425 352.14 268.081 357.98 259.322 353.119Z" fill="#181818" stroke="#263238" stroke-width="0.510854" stroke-linecap="round" stroke-linejoin="round"/>
<path d="M225.496 492.538C222.357 504.183 221.246 516.282 222.211 528.305C224.036 546.919 233.525 556.773 274.767 562.977C316.009 569.182 344.477 564.072 367.47 553.123C390.463 542.174 385.251 502.888 379.281 493.881C373.31 484.873 350.316 483.049 313.089 486.333C275.862 489.618 252.869 483.778 239.365 485.968C225.861 488.158 225.496 492.538 225.496 492.538Z" fill="#696969" stroke="#263238" stroke-width="0.510854" stroke-linecap="round" stroke-linejoin="round"/>
<path opacity="0.3" d="M356.886 498.377C356.886 498.377 337.178 503.487 323.309 507.137C309.44 510.786 307.98 512.246 320.389 513.706C332.798 515.166 356.156 513.706 356.156 513.706C356.156 513.706 323.309 529.035 305.79 532.685C288.271 536.334 256.154 524.655 252.504 521.736C248.855 518.816 267.833 518.816 272.943 516.626C278.052 514.436 275.133 511.516 256.884 508.597C238.635 505.677 242.285 522.466 258.344 534.145C274.403 545.824 283.892 549.473 304.695 545.824C325.499 542.174 353.966 533.415 363.456 515.896C372.945 498.377 356.886 498.377 356.886 498.377Z" fill="black"/>
<path d="M216.196 381.513L213.773 430.274C213.773 430.274 209.393 441.602 217.276 448.873C225.16 456.143 235.321 453.997 240.635 444.566C245.949 435.135 245.219 413.31 246.562 404.682C247.905 396.054 237.408 387.163 228.78 383.937C220.152 380.71 216.196 381.513 216.196 381.513Z" fill="#FFB573" stroke="#263238" stroke-width="0.510854" stroke-linecap="round" stroke-linejoin="round"/>
<path d="M386.916 381.513L389.339 430.274C389.339 430.274 393.646 441.602 385.835 448.873C378.025 456.143 367.777 453.997 362.39 444.566C357.003 435.135 357.806 413.31 356.462 404.682C355.119 396.054 365.631 387.163 374.244 383.937C382.857 380.71 386.916 381.513 386.916 381.513Z" fill="#FFB573" stroke="#263238" stroke-width="0.510854" stroke-linecap="round" stroke-linejoin="round"/>
<path d="M282.168 308.855C282.168 308.855 283.088 329.147 278.168 337.746C273.248 346.345 257.569 345.819 247.438 345.819C237.306 345.819 222.225 354.111 217.306 362.418C213.594 369.229 210.412 376.316 207.787 383.616L241.598 401.747C241.598 401.747 237.905 408.828 241.598 419.266C245.292 429.704 250.81 433.719 249.277 438.945C247.744 444.172 227.758 481.355 225.919 487.195C224.989 489.899 224.272 492.671 223.773 495.487C223.773 495.487 266.489 503.794 303.673 502.567C340.856 501.341 379.28 493.954 379.28 493.954C379.28 493.954 367.908 473.983 361.761 462.61C355.615 451.238 350.082 439.558 351.309 435.558C352.535 431.558 359.615 420.814 359.309 402.054C359.309 402.054 386.653 394.988 396.799 383.616C396.799 383.616 384.813 353.805 372.521 348.885C360.229 343.965 346.097 348.885 336.024 346.126C325.95 343.366 320.651 338.432 319.118 334.753C317.585 331.074 316.038 313.848 316.651 309.862L282.168 308.855Z" fill="#ED893E" stroke="#263238" stroke-width="0.510854" stroke-linecap="round" stroke-linejoin="round"/>
<path opacity="0.3" d="M251.044 427.573C251.044 427.573 240.824 416.624 252.504 415.164C264.183 413.704 280.971 425.383 299.22 429.763C317.469 434.142 339.367 414.434 348.856 417.354C358.345 420.273 352.506 434.872 342.287 441.442C332.067 448.011 303.6 447.281 287.541 446.551C271.482 445.821 263.453 441.442 251.044 427.573Z" fill="black"/>
<path d="M264.183 434.347C264.183 434.347 269.745 438.799 284.621 438.799C299.497 438.799 310.899 432.128 321.323 433.982" stroke="#263238" stroke-width="0.510854" stroke-linecap="round" stroke-linejoin="round"/>
<path d="M257.876 435.456C257.876 435.456 264.168 440.653 277.147 441.018" stroke="#263238" stroke-width="0.510854" stroke-linecap="round" stroke-linejoin="round"/>
<path d="M241.599 401.674C241.599 401.674 242.664 396.171 249.716 390.973" stroke="#263238" stroke-width="0.510854" stroke-linecap="round" stroke-linejoin="round"/>
<path d="M359.309 401.981C359.309 401.981 356.842 391.353 350.17 389.119" stroke="#263238" stroke-width="0.510854" stroke-linecap="round" stroke-linejoin="round"/>
<path d="M301.834 383.543C325.878 382.594 333.426 359.454 335.791 346.009C325.761 343.235 320.579 338.344 319.046 334.68C317.513 331.016 315.965 313.775 316.579 309.789L282.169 308.855C282.169 308.855 283.089 329.147 278.169 337.746C275.658 342.126 270.315 344.14 264.344 345.045C266.621 354.695 275.862 384.579 301.834 383.543Z" fill="#FFB573"/>
<mask id="mask0_30_884" style="mask-type:luminance" maskUnits="userSpaceOnUse" x="264" y="308" width="72" height="76">
<path d="M301.834 383.543C325.878 382.594 333.426 359.454 335.791 346.009C325.761 343.235 320.579 338.344 319.046 334.68C317.513 331.016 315.965 313.775 316.579 309.789L282.169 308.855C282.169 308.855 283.089 329.147 278.169 337.746C275.658 342.126 270.315 344.14 264.344 345.045C266.621 354.695 275.862 384.579 301.834 383.543Z" fill="white"/>
</mask>
<g mask="url(#mask0_30_884)">
<path opacity="0.3" d="M317.177 324.008C316.565 319.295 316.364 314.537 316.579 309.789L282.169 308.855C282.35 314.082 282.169 319.316 281.629 324.519C287.673 328.476 299.921 333.206 317.177 324.008Z" fill="black"/>
</g>
<path d="M301.834 383.543C325.878 382.594 333.426 359.454 335.791 346.009C325.761 343.235 320.579 338.344 319.046 334.68C317.513 331.016 315.965 313.775 316.579 309.789L282.169 308.855C282.169 308.855 283.089 329.147 278.169 337.746C275.658 342.126 270.315 344.14 264.344 345.045C266.621 354.695 275.862 384.579 301.834 383.543Z" stroke="#263238" stroke-width="0.510854" stroke-linecap="round" stroke-linejoin="round"/>
<path d="M267.57 266.985C267.57 266.985 263.191 259.846 258.884 264.197C254.577 268.547 258.884 277.219 261.672 281.248C264.461 285.278 269.731 288.373 270.972 286.825C272.213 285.278 267.57 266.985 267.57 266.985Z" fill="#FFB573" stroke="#263238" stroke-width="0.510854" stroke-linecap="round" stroke-linejoin="round"/>
<path d="M334.841 266.343C334.841 266.343 341.046 258.284 344.462 266.036C347.878 273.788 338.622 285.57 334.243 287.745C329.863 289.92 332.067 282.781 332.374 280.299C332.681 277.818 334.841 266.343 334.841 266.343Z" fill="#FFB573" stroke="#263238" stroke-width="0.510854" stroke-linecap="round" stroke-linejoin="round"/>
<path d="M264.183 239.685C264.183 239.685 266.358 269.146 267.905 284.022C269.453 298.898 275 312.242 292.052 316.621C309.103 321.001 322.709 315.074 327.717 305.147C332.724 295.219 335.469 276.314 335.469 260.81V235.992C335.469 235.992 291.439 223.568 264.183 239.685Z" fill="#FFB573" stroke="#263238" stroke-width="0.510854" stroke-linecap="round" stroke-linejoin="round"/>
<path d="M297.016 281.847C298.592 282.893 300.402 283.535 302.286 283.715C304.26 283.51 306.164 282.872 307.863 281.847" stroke="#263238" stroke-width="0.510854" stroke-linecap="round" stroke-linejoin="round"/>
<path d="M292.986 291.467C292.986 291.467 300.738 296.431 311.965 290.84" stroke="#263238" stroke-width="0.510854" stroke-linecap="round" stroke-linejoin="round"/>
<path d="M280.592 266.343C280.592 266.343 287.103 265.423 290.811 267.905" stroke="#263238" stroke-width="1.02171" stroke-linecap="round" stroke-linejoin="round"/>
<path d="M310.973 267.584C310.973 267.584 317.177 264.489 323.061 267.277" stroke="#263238" stroke-width="1.02171" stroke-linecap="round" stroke-linejoin="round"/>
<path d="M266.022 263.525C268.148 259.939 269.811 256.099 270.971 252.094C272.856 246.853 273.442 241.232 272.679 235.714C269.732 236.777 266.888 238.106 264.183 239.685C264.183 239.685 265 251.233 266.022 263.525Z" fill="#181818" stroke="#181818" stroke-width="0.510854" stroke-linecap="round" stroke-linejoin="round"/>
<path d="M335.454 261.058C335.454 260.956 335.454 260.868 335.454 260.766V235.948C335.454 235.948 332.418 235.101 327.469 234.138C327.79 238.955 329.235 253.481 335.454 261.058Z" fill="#181818" stroke="#181818" stroke-width="0.510854" stroke-linecap="round" stroke-linejoin="round"/>
<path d="M278.11 255.496C278.11 255.496 283.381 248.372 294.534 250.532" stroke="#263238" stroke-width="0.510854" stroke-linecap="round" stroke-linejoin="round"/>
<path d="M310.345 251.467C312.889 250.535 315.637 250.303 318.302 250.793C320.967 251.284 323.452 252.479 325.498 254.255" stroke="#263238" stroke-width="0.510854" stroke-linecap="round" stroke-linejoin="round"/>
<path d="M304.694 545.824C304.694 545.824 290.461 545.824 264.913 520.641C239.365 495.458 223.306 474.289 203.597 465.53C183.889 456.771 164.91 476.114 166.005 496.917C167.1 517.721 182.429 546.919 228.05 563.707C273.672 580.496 312.724 573.562 316.739 573.562C320.753 573.562 340.462 583.416 352.141 584.511C358.57 585.199 365.055 585.199 371.484 584.511C371.484 584.511 374.769 584.876 376.594 584.876C378.419 584.876 380.609 582.686 380.609 582.686C380.609 582.686 384.302 583.649 385.762 581.095C387.222 578.54 386.083 577.576 386.083 577.576C386.083 577.576 392.332 578.116 394.521 574.102C396.711 570.087 393.587 570.248 393.587 570.248C393.587 570.248 397.865 569.415 397.762 565.97C397.843 564.687 397.591 563.405 397.032 562.247C397.032 562.247 399.587 558.233 398.492 554.948C397.397 551.663 393.383 550.568 389.368 552.393C385.353 554.218 366.01 553.488 350.316 552.393C334.622 551.298 304.694 545.824 304.694 545.824Z" fill="#FFB573" stroke="#263238" stroke-width="0.510854" stroke-linecap="round" stroke-linejoin="round"/>
<path d="M298.344 544.364C291.833 542.013 280.475 536.028 264.913 520.684C239.365 495.458 223.306 474.289 203.597 465.53C183.889 456.771 164.91 476.114 166.005 496.917C167.1 517.721 182.429 546.919 228.05 563.707C245.066 569.922 262.901 573.607 280.986 574.642C297.57 567.722 299.118 553.123 298.344 544.364Z" fill="#696969"/>
<mask id="mask1_30_884" style="mask-type:luminance" maskUnits="userSpaceOnUse" x="165" y="463" width="134" height="112">
<path d="M298.344 544.364C291.833 542.013 280.475 536.028 264.913 520.684C239.365 495.458 223.306 474.289 203.597 465.53C183.889 456.771 164.91 476.114 166.005 496.917C167.1 517.721 182.429 546.919 228.05 563.707C245.066 569.922 262.901 573.607 280.986 574.642C297.57 567.722 299.118 553.123 298.344 544.364Z" fill="white"/>
</mask>
<g mask="url(#mask1_30_884)">
<path opacity="0.3" d="M292.14 566.758C284.942 564.029 276.533 561.109 267.102 558.233C233.525 548.014 208.707 535.604 191.918 516.626C175.13 497.647 180.969 473.559 180.969 473.559L177.1 470.056C173.386 473.439 170.465 477.601 168.547 482.245C166.629 486.889 165.761 491.899 166.005 496.917C167.1 517.721 182.429 546.919 228.05 563.707C245.066 569.922 262.901 573.607 280.986 574.642C285.277 572.938 289.101 570.235 292.14 566.758Z" fill="black"/>
</g>
<path d="M298.344 544.364C291.833 542.013 280.475 536.028 264.913 520.684C239.365 495.458 223.306 474.289 203.597 465.53C183.889 456.771 164.91 476.114 166.005 496.917C167.1 517.721 182.429 546.919 228.05 563.707C245.066 569.922 262.901 573.607 280.986 574.642C297.57 567.722 299.118 553.123 298.344 544.364Z" stroke="#263238" stroke-width="0.510854" stroke-linecap="round" stroke-linejoin="round"/>
<path d="M397.033 562.247C395.912 561.744 394.693 561.498 393.465 561.528C392.237 561.558 391.032 561.864 389.938 562.423" fill="#FFB573"/>
<path d="M397.033 562.247C395.912 561.744 394.693 561.498 393.465 561.528C392.237 561.558 391.032 561.864 389.938 562.423" stroke="#263238" stroke-width="0.510854" stroke-linecap="round" stroke-linejoin="round"/>
<path d="M393.588 570.248C391.701 569.564 389.635 569.564 387.748 570.248H393.588Z" fill="#FFB573"/>
<path d="M393.588 570.248C391.701 569.564 389.635 569.564 387.748 570.248" stroke="#263238" stroke-width="0.510854" stroke-linecap="round" stroke-linejoin="round"/>
<path d="M386.084 577.576C384.735 576.562 383.066 576.069 381.383 576.189L386.084 577.576Z" fill="#FFB573"/>
<path d="M386.084 577.576C384.735 576.562 383.066 576.069 381.383 576.189" stroke="#263238" stroke-width="0.510854" stroke-linecap="round" stroke-linejoin="round"/>
<path d="M380.229 582.321C380.229 582.321 378.667 579.503 376.375 579.503L380.229 582.321Z" fill="#FFB573"/>
<path d="M380.229 582.321C380.229 582.321 378.667 579.503 376.375 579.503" stroke="#263238" stroke-width="0.510854" stroke-linecap="round" stroke-linejoin="round"/>
<path d="M288.505 545.824C288.505 545.824 302.739 545.824 328.287 520.641C353.835 495.458 369.894 474.289 389.602 465.53C409.311 456.771 428.289 476.114 427.194 496.917C426.1 517.721 410.771 546.919 365.149 563.707C319.528 580.496 280.476 573.562 276.461 573.562C272.446 573.562 252.738 583.416 241.059 584.511C234.629 585.199 228.145 585.199 221.715 584.511C221.715 584.511 218.431 584.876 216.606 584.876C214.781 584.876 212.591 582.686 212.591 582.686C212.591 582.686 208.897 583.649 207.438 581.095C205.978 578.54 207.116 577.576 207.116 577.576C207.116 577.576 200.853 578.116 198.664 574.102C196.474 570.087 199.598 570.248 199.598 570.248C199.598 570.248 195.32 569.415 195.423 565.97C195.338 564.685 195.595 563.401 196.167 562.247C196.167 562.247 193.612 558.233 194.707 554.948C195.802 551.663 199.817 550.568 203.832 552.393C207.846 554.218 227.19 553.488 242.884 552.393C258.577 551.298 288.505 545.824 288.505 545.824Z" fill="#FFB573" stroke="#263238" stroke-width="0.510854" stroke-linecap="round" stroke-linejoin="round"/>
<path d="M294.841 544.364C301.337 542.013 312.695 536.028 328.272 520.684C353.82 495.501 369.879 474.333 389.588 465.574C409.296 456.814 428.275 476.158 427.18 496.961C426.085 517.765 410.756 546.962 365.134 563.751C348.115 569.968 330.274 573.652 312.184 574.686C295.615 567.722 294.082 553.123 294.841 544.364Z" fill="#696969"/>
<mask id="mask2_30_884" style="mask-type:luminance" maskUnits="userSpaceOnUse" x="294" y="463" width="134" height="112">
<path d="M294.841 544.364C301.337 542.013 312.695 536.028 328.272 520.684C353.82 495.501 369.879 474.333 389.588 465.574C409.296 456.814 428.275 476.158 427.18 496.961C426.085 517.765 410.756 546.962 365.134 563.751C348.115 569.968 330.274 573.652 312.184 574.686C295.615 567.722 294.082 553.123 294.841 544.364Z" fill="white"/>
</mask>
<g mask="url(#mask2_30_884)">
<path opacity="0.3" d="M427.194 496.917C427.953 482.421 418.96 468.654 406.756 464.581L401.412 468.45C401.412 468.45 419.661 479.399 415.281 500.567C410.902 521.736 375.134 543.634 346.667 555.313C332.493 560.869 317.946 565.42 303.133 568.934C305.794 571.357 308.863 573.29 312.199 574.642C330.289 573.608 348.129 569.924 365.149 563.707C410.77 546.919 426.099 517.721 427.194 496.917Z" fill="black"/>
</g>
<path d="M294.841 544.364C301.337 542.013 312.695 536.028 328.272 520.684C353.82 495.501 369.879 474.333 389.588 465.574C409.296 456.814 428.275 476.158 427.18 496.961C426.085 517.765 410.756 546.962 365.134 563.751C348.115 569.968 330.274 573.652 312.184 574.686C295.615 567.722 294.082 553.123 294.841 544.364Z" stroke="#263238" stroke-width="0.510854" stroke-linecap="round" stroke-linejoin="round"/>
<path d="M196.167 562.247C197.287 561.744 198.506 561.498 199.734 561.528C200.962 561.558 202.168 561.864 203.262 562.423" fill="#FFB573"/>
<path d="M196.167 562.247C197.287 561.744 198.506 561.498 199.734 561.528C200.962 561.558 202.168 561.864 203.262 562.423" stroke="#263238" stroke-width="0.510854" stroke-linecap="round" stroke-linejoin="round"/>
<path d="M199.598 570.248C201.484 569.564 203.551 569.564 205.437 570.248H199.598Z" fill="#FFB573"/>
<path d="M199.598 570.248C201.484 569.564 203.551 569.564 205.437 570.248" stroke="#263238" stroke-width="0.510854" stroke-linecap="round" stroke-linejoin="round"/>
<path d="M207.116 577.576C208.465 576.562 210.134 576.069 211.817 576.189L207.116 577.576Z" fill="#FFB573"/>
<path d="M207.116 577.576C208.465 576.562 210.134 576.069 211.817 576.189" stroke="#263238" stroke-width="0.510854" stroke-linecap="round" stroke-linejoin="round"/>
<path d="M212.97 582.321C212.97 582.321 214.546 579.401 216.824 579.401L212.97 582.321Z" fill="#FFB573"/>
<path d="M212.97 582.321C212.97 582.321 214.546 579.401 216.824 579.401" stroke="#263238" stroke-width="0.510854" stroke-linecap="round" stroke-linejoin="round"/>
<path d="M222.387 433.515C222.387 433.515 217 432.434 207.306 437.281C197.613 442.128 188.707 450.756 183.583 453.719C178.459 456.683 174.97 458.581 170.444 453.997C165.918 449.413 156.166 436.741 146.998 437.018C137.83 437.296 134.604 449.953 136.224 452.639C137.845 455.325 140.268 455.88 142.151 453.719C144.035 451.559 146.458 447.252 148.881 448.873C151.305 450.493 149.962 458.041 146.195 459.384C142.429 460.727 132.18 467.194 134.604 470.975C137.027 474.756 150.779 479.866 161.013 480.669C171.247 481.472 183.919 474.479 192.269 473.121C200.62 471.764 223.263 470.202 233.759 461.544C236.782 459.085 239.099 455.867 240.474 452.221C241.848 448.574 242.232 444.628 241.584 440.785" fill="#FFB573"/>
<path d="M222.387 433.515C222.387 433.515 217 432.434 207.306 437.281C197.613 442.128 188.707 450.756 183.583 453.719C178.459 456.683 174.97 458.581 170.444 453.997C165.918 449.413 156.166 436.741 146.998 437.018C137.83 437.296 134.604 449.953 136.224 452.639C137.845 455.325 140.268 455.88 142.151 453.719C144.035 451.559 146.458 447.252 148.881 448.873C151.305 450.493 149.962 458.041 146.195 459.384C142.429 460.727 132.18 467.194 134.604 470.975C137.027 474.756 150.779 479.866 161.013 480.669C171.247 481.472 183.919 474.479 192.269 473.121C200.62 471.764 223.263 470.202 233.759 461.544C236.782 459.085 239.099 455.867 240.474 452.221C241.848 448.574 242.232 444.628 241.584 440.785" stroke="#263238" stroke-width="0.510854" stroke-linecap="round" stroke-linejoin="round"/>
<path d="M135.888 465.311C135.888 465.311 134.822 453.457 131.318 452.639C127.815 451.822 127.275 459.939 127.815 467.734C128.355 475.53 132.662 477.705 135.348 475.545C138.034 473.384 135.888 465.311 135.888 465.311Z" fill="#FFB573" stroke="#263238" stroke-width="0.510854" stroke-linecap="round" stroke-linejoin="round"/>
<path d="M144.311 468.654C144.311 468.654 145.333 456.785 142.034 455.369C138.734 453.953 136.778 461.822 135.917 469.603C135.055 477.384 138.939 480.275 141.975 478.64C145.012 477.005 144.311 468.654 144.311 468.654Z" fill="#FFB573" stroke="#263238" stroke-width="0.510854" stroke-linecap="round" stroke-linejoin="round"/>
<path d="M151.582 471.369C151.582 471.369 152.618 459.515 149.304 458.099C145.99 456.683 144.049 464.552 143.202 472.333C142.355 480.114 146.209 483.005 149.246 481.355C152.282 479.705 151.582 471.369 151.582 471.369Z" fill="#FFB573" stroke="#263238" stroke-width="0.510854" stroke-linecap="round" stroke-linejoin="round"/>
<path d="M170.648 480.129C165.756 482.385 160.413 483.494 155.027 483.37C154.715 481.134 154.535 478.882 154.487 476.625C154.487 473.705 160.677 461.544 169.845 462.347" fill="#FFB573"/>
<path d="M170.648 480.129C165.756 482.385 160.413 483.494 155.027 483.37C154.715 481.134 154.535 478.882 154.487 476.625C154.487 473.705 160.677 461.544 169.845 462.347" stroke="#263238" stroke-width="0.510854" stroke-linecap="round" stroke-linejoin="round"/>
<path d="M159.304 475.997C159.304 475.997 162.735 466.712 159.903 464.552C157.071 462.391 153.582 468.143 151.144 474.187C148.706 480.231 151.786 483.764 154.998 483.37C158.21 482.976 159.304 475.997 159.304 475.997Z" fill="#FFB573" stroke="#263238" stroke-width="0.510854" stroke-linecap="round" stroke-linejoin="round"/>
<path d="M380.711 433.515C380.711 433.515 386.098 432.434 395.806 437.281C405.515 442.128 414.391 450.756 419.515 453.719C424.639 456.683 428.143 458.581 432.727 453.997C437.311 449.413 447.005 436.741 456.158 437.018C465.312 437.296 468.553 449.953 466.947 452.639C465.341 455.325 462.903 455.88 461.02 453.719C459.136 451.559 456.64 447.252 454.275 448.873C451.91 450.493 453.195 458.041 456.976 459.384C460.757 460.727 470.991 467.194 468.553 470.975C466.115 474.756 452.392 479.866 442.158 480.669C431.924 481.472 419.252 474.479 410.887 473.121C402.522 471.764 379.908 470.202 369.397 461.544C366.374 459.085 364.059 455.867 362.686 452.22C361.314 448.573 360.935 444.627 361.587 440.785" fill="#FFB573"/>
<path d="M380.711 433.515C380.711 433.515 386.098 432.434 395.806 437.281C405.515 442.128 414.391 450.756 419.515 453.719C424.639 456.683 428.143 458.581 432.727 453.997C437.311 449.413 447.005 436.741 456.158 437.018C465.312 437.296 468.553 449.953 466.947 452.639C465.341 455.325 462.903 455.88 461.02 453.719C459.136 451.559 456.64 447.252 454.275 448.873C451.91 450.493 453.195 458.041 456.976 459.384C460.757 460.727 470.991 467.194 468.553 470.975C466.115 474.756 452.392 479.866 442.158 480.669C431.924 481.472 419.252 474.479 410.887 473.121C402.522 471.764 379.908 470.202 369.397 461.544C366.374 459.085 364.059 455.867 362.686 452.22C361.314 448.573 360.935 444.627 361.587 440.785" stroke="#263238" stroke-width="0.510854" stroke-linecap="round" stroke-linejoin="round"/>
<path d="M467.21 465.311C467.21 465.311 468.29 453.457 471.794 452.639C475.298 451.822 475.838 459.939 475.298 467.734C474.757 475.53 470.451 477.705 467.75 475.545C465.049 473.384 467.21 465.311 467.21 465.311Z" fill="#FFB573" stroke="#263238" stroke-width="0.510854" stroke-linecap="round" stroke-linejoin="round"/>
<path d="M458.801 468.654C458.801 468.654 457.764 456.785 461.064 455.369C464.363 453.953 466.334 461.822 467.181 469.603C468.027 477.384 464.188 480.275 461.137 478.669C458.085 477.063 458.801 468.654 458.801 468.654Z" fill="#FFB573" stroke="#263238" stroke-width="0.510854" stroke-linecap="round" stroke-linejoin="round"/>
<path d="M451.516 471.369C451.516 471.369 450.494 459.515 453.793 458.099C457.093 456.683 459.063 464.552 459.91 472.333C460.757 480.114 456.888 483.005 453.866 481.355C450.844 479.705 451.516 471.369 451.516 471.369Z" fill="#FFB573" stroke="#263238" stroke-width="0.510854" stroke-linecap="round" stroke-linejoin="round"/>
<path d="M432.449 480.129C437.36 482.392 442.723 483.501 448.128 483.37C448.44 481.134 448.621 478.882 448.669 476.625C448.669 473.705 442.464 461.544 433.296 462.347" fill="#FFB573"/>
<path d="M432.449 480.129C437.36 482.392 442.723 483.501 448.128 483.37C448.44 481.134 448.621 478.882 448.669 476.625C448.669 473.705 442.464 461.544 433.296 462.347" stroke="#263238" stroke-width="0.510854" stroke-linecap="round" stroke-linejoin="round"/>
<path d="M443.749 475.997C443.749 475.997 440.318 466.712 443.151 464.552C445.983 462.391 449.457 468.143 451.91 474.187C454.363 480.231 451.268 483.764 448.056 483.37C444.844 482.976 443.749 475.997 443.749 475.997Z" fill="#FFB573" stroke="#263238" stroke-width="0.510854" stroke-linecap="round" stroke-linejoin="round"/>
<path d="M328.418 221.729C324.987 216.75 319.659 221.597 318.287 223.086C316.827 221.626 311.586 216.75 308.169 221.729C304.447 227.145 318.17 238.43 318.287 238.371C318.403 238.313 332.097 227.145 328.418 221.729Z" stroke="#C7C6F8" stroke-width="0.510854" stroke-linecap="round" stroke-linejoin="round"/>
<path d="M294.33 226.196C290.045 220.427 284.272 215.931 277.629 213.188C266.943 209.013 273.907 200.662 278.549 202.969C281.545 204.44 284.649 205.68 287.834 206.677C287.834 206.677 275.761 196.925 275.308 188.575C274.855 180.224 287.834 190.896 287.834 190.896C287.834 190.896 272.053 169.173 277.162 165.377C282.272 161.581 286.9 168.632 290.155 174.662C292.467 179.168 294.481 183.82 296.184 188.589C296.184 188.589 295.265 173.275 300.374 177.917C305.484 182.56 302.228 205.772 302.228 205.772C302.228 205.772 309.192 186.794 312.448 197.013C315.703 207.232 295.732 224.794 294.33 226.196Z" stroke="#C7C6F8" stroke-width="0.510854" stroke-linecap="round" stroke-linejoin="round"/>
<path d="M294.33 226.196C294.33 226.196 301.761 203.903 286.446 175.1" stroke="#C7C6F8" stroke-width="0.510854" stroke-linecap="round" stroke-linejoin="round"/>
<path d="M268.855 78.2071C263.533 78.1666 258.3 79.5746 253.716 82.2802C246.417 86.6598 244.665 78.8786 248.11 77.1706C250.314 76.0538 252.432 74.7753 254.446 73.3456C254.446 73.3456 243.293 76.1194 238.154 72.6595C233.015 69.1996 245.117 66.2944 245.117 66.2944C245.117 66.2944 225.19 65.8856 225.278 61.214C225.365 56.5423 231.541 56.8343 236.563 57.681C240.255 58.3276 243.903 59.2102 247.483 60.3234C247.483 60.3234 238.022 54.0313 243.03 53.024C248.037 52.0167 260.315 64.3527 260.315 64.3527C260.315 64.3527 252.183 51.7539 259.658 54.3817C267.133 57.0095 268.651 76.7618 268.855 78.2071Z" stroke="#C7C6F8" stroke-width="0.510854" stroke-linecap="round" stroke-linejoin="round"/>
<path d="M268.855 78.2071C268.855 78.2071 259.016 63.871 235.176 60.0753" stroke="#C7C6F8" stroke-width="0.510854" stroke-linecap="round" stroke-linejoin="round"/>
<path d="M361.061 170.443C360.648 170.451 360.236 170.505 359.835 170.603C360.452 170.015 360.919 169.286 361.197 168.479C361.474 167.672 361.554 166.81 361.429 165.966C361.304 165.122 360.978 164.321 360.478 163.629C359.979 162.937 359.321 162.375 358.559 161.99C357.797 161.606 356.955 161.41 356.101 161.419C355.248 161.428 354.41 161.642 353.656 162.042C352.903 162.443 352.257 163.018 351.772 163.721C351.287 164.423 350.978 165.231 350.871 166.078C350.529 165.356 350.03 164.721 349.409 164.219C348.789 163.717 348.063 163.36 347.287 163.176C346.51 162.992 345.702 162.984 344.922 163.154C344.142 163.324 343.41 163.667 342.781 164.158C342.151 164.648 341.64 165.274 341.285 165.989C340.929 166.704 340.739 167.489 340.728 168.287C340.717 169.086 340.886 169.876 341.221 170.6C341.557 171.325 342.051 171.964 342.667 172.472C341.978 172.817 341.372 173.307 340.891 173.909C340.41 174.511 340.065 175.21 339.88 175.958C339.695 176.706 339.675 177.485 339.82 178.242C339.966 178.998 340.273 179.714 340.722 180.34C341.171 180.967 341.75 181.488 342.42 181.869C343.09 182.249 343.834 182.48 344.602 182.546C345.369 182.611 346.142 182.509 346.867 182.247C347.591 181.985 348.25 181.568 348.798 181.027C348.919 182.365 349.541 183.607 350.541 184.505C351.541 185.402 352.843 185.887 354.186 185.863C355.529 185.839 356.813 185.307 357.78 184.375C358.747 183.442 359.324 182.178 359.397 180.837C359.934 181.017 360.495 181.115 361.061 181.129C362.478 181.129 363.837 180.566 364.839 179.564C365.841 178.562 366.404 177.203 366.404 175.786C366.404 174.369 365.841 173.01 364.839 172.008C363.837 171.006 362.478 170.443 361.061 170.443Z" stroke="#C7C6F8" stroke-width="0.510854" stroke-linecap="round" stroke-linejoin="round"/>
<path d="M351.967 178.341C354.007 178.341 355.66 176.687 355.66 174.647C355.66 172.607 354.007 170.954 351.967 170.954C349.927 170.954 348.273 172.607 348.273 174.647C348.273 176.687 349.927 178.341 351.967 178.341Z" stroke="#C7C6F8" stroke-width="0.510854" stroke-linecap="round" stroke-linejoin="round"/>
<path d="M254.227 212.473C253.809 212.481 253.393 212.534 252.986 212.634C253.608 212.046 254.078 211.318 254.359 210.511C254.64 209.703 254.722 208.84 254.599 207.994C254.475 207.148 254.15 206.344 253.651 205.65C253.152 204.956 252.493 204.392 251.73 204.006C250.967 203.621 250.123 203.424 249.268 203.433C248.413 203.442 247.573 203.657 246.819 204.059C246.064 204.462 245.418 205.039 244.934 205.744C244.45 206.449 244.142 207.259 244.037 208.108C243.514 207.018 242.635 206.139 241.546 205.615C240.457 205.09 239.222 204.951 238.044 205.221C236.866 205.491 235.814 206.154 235.062 207.1C234.31 208.046 233.902 209.22 233.906 210.429C233.907 211.208 234.08 211.977 234.413 212.681C234.746 213.385 235.231 214.007 235.833 214.502C235.144 214.847 234.538 215.338 234.057 215.939C233.576 216.541 233.231 217.24 233.046 217.988C232.861 218.736 232.841 219.515 232.986 220.272C233.132 221.028 233.439 221.744 233.888 222.371C234.337 222.997 234.916 223.518 235.586 223.899C236.256 224.28 237 224.511 237.768 224.576C238.536 224.641 239.308 224.539 240.033 224.277C240.757 224.015 241.416 223.599 241.964 223.057C242.106 224.377 242.737 225.596 243.732 226.475C244.728 227.353 246.016 227.827 247.343 227.803C248.67 227.779 249.941 227.259 250.904 226.346C251.867 225.433 252.454 224.192 252.548 222.867C253.088 223.055 253.655 223.154 254.227 223.159C255.644 223.159 257.003 222.596 258.005 221.594C259.007 220.592 259.57 219.233 259.57 217.816C259.57 216.399 259.007 215.04 258.005 214.038C257.003 213.036 255.644 212.473 254.227 212.473Z" stroke="#C7C6F8" stroke-width="0.510854" stroke-linecap="round" stroke-linejoin="round"/>
<path d="M245.117 220.371C247.157 220.371 248.811 218.717 248.811 216.677C248.811 214.638 247.157 212.984 245.117 212.984C243.077 212.984 241.424 214.638 241.424 216.677C241.424 218.717 243.077 220.371 245.117 220.371Z" stroke="#C7C6F8" stroke-width="0.510854" stroke-linecap="round" stroke-linejoin="round"/>
<path d="M251.307 146.077C251.046 146.081 250.786 146.116 250.533 146.179C250.862 145.873 251.123 145.503 251.302 145.091C251.48 144.679 251.571 144.234 251.57 143.785C251.61 142.917 251.307 142.069 250.728 141.422C250.148 140.775 249.338 140.381 248.471 140.326C247.604 140.27 246.75 140.557 246.093 141.125C245.435 141.693 245.027 142.496 244.956 143.362C244.743 142.913 244.432 142.519 244.045 142.207C243.659 141.895 243.207 141.674 242.724 141.56C242.241 141.446 241.738 141.443 241.253 141.549C240.768 141.656 240.313 141.87 239.922 142.176C239.531 142.482 239.214 142.871 238.994 143.316C238.773 143.762 238.656 144.25 238.65 144.747C238.644 145.243 238.75 145.735 238.96 146.185C239.17 146.635 239.478 147.032 239.861 147.347C239.313 147.614 238.85 148.029 238.525 148.545C238.2 149.061 238.026 149.657 238.022 150.267C238.002 150.939 238.186 151.6 238.549 152.165C238.913 152.73 239.439 153.172 240.058 153.433C240.677 153.694 241.36 153.761 242.018 153.626C242.677 153.49 243.278 153.159 243.745 152.676C243.837 153.497 244.232 154.254 244.854 154.799C245.475 155.344 246.278 155.636 247.104 155.62C247.93 155.603 248.72 155.279 249.32 154.71C249.919 154.141 250.284 153.369 250.343 152.545C250.675 152.668 251.026 152.732 251.38 152.734C252.263 152.734 253.109 152.384 253.734 151.759C254.358 151.135 254.708 150.289 254.708 149.406C254.708 148.523 254.358 147.676 253.734 147.052C253.109 146.428 252.263 146.077 251.38 146.077H251.307Z" stroke="#C7C6F8" stroke-width="0.510854" stroke-linecap="round" stroke-linejoin="round"/>
<path d="M245.643 150.997C246.916 150.997 247.949 149.964 247.949 148.69C247.949 147.417 246.916 146.384 245.643 146.384C244.369 146.384 243.336 147.417 243.336 148.69C243.336 149.964 244.369 150.997 245.643 150.997Z" stroke="#C7C6F8" stroke-width="0.510854" stroke-linecap="round" stroke-linejoin="round"/>
<path d="M221.219 248.007C220.963 248.011 220.709 248.045 220.46 248.109C220.784 247.8 221.042 247.428 221.217 247.017C221.393 246.605 221.483 246.162 221.482 245.715C221.478 244.875 221.156 244.068 220.58 243.457C220.005 242.846 219.218 242.477 218.381 242.423C217.543 242.369 216.716 242.635 216.067 243.168C215.418 243.7 214.995 244.459 214.884 245.291C214.668 244.846 214.356 244.455 213.97 244.147C213.584 243.838 213.134 243.62 212.652 243.508C212.171 243.396 211.67 243.393 211.188 243.499C210.705 243.605 210.252 243.818 209.863 244.122C209.473 244.426 209.156 244.814 208.935 245.256C208.715 245.698 208.596 246.184 208.587 246.678C208.579 247.173 208.681 247.662 208.886 248.112C209.092 248.562 209.395 248.96 209.774 249.277C209.348 249.492 208.973 249.798 208.675 250.171C208.378 250.545 208.165 250.979 208.051 251.443C207.937 251.907 207.924 252.391 208.015 252.86C208.105 253.329 208.295 253.773 208.573 254.162C208.851 254.551 209.21 254.875 209.625 255.112C210.04 255.349 210.501 255.493 210.977 255.535C211.453 255.577 211.932 255.516 212.382 255.356C212.832 255.195 213.242 254.939 213.584 254.605C213.676 255.427 214.072 256.184 214.693 256.728C215.315 257.273 216.117 257.566 216.944 257.549C217.77 257.533 218.56 257.208 219.159 256.639C219.758 256.07 220.124 255.298 220.183 254.474C220.515 254.596 220.866 254.66 221.219 254.664C222.102 254.664 222.949 254.313 223.573 253.689C224.197 253.065 224.548 252.218 224.548 251.335C224.548 250.452 224.197 249.606 223.573 248.982C222.949 248.357 222.102 248.007 221.219 248.007Z" stroke="#C7C6F8" stroke-width="0.510854" stroke-linecap="round" stroke-linejoin="round"/>
<path d="M215.555 252.926C216.829 252.926 217.861 251.894 217.861 250.62C217.861 249.346 216.829 248.313 215.555 248.313C214.281 248.313 213.248 249.346 213.248 250.62C213.248 251.894 214.281 252.926 215.555 252.926Z" stroke="#C7C6F8" stroke-width="0.510854" stroke-linecap="round" stroke-linejoin="round"/>
<path d="M285.833 90.7622C285.577 90.7665 285.322 90.8008 285.074 90.8644C285.457 90.4982 285.746 90.0458 285.917 89.5449C286.089 89.0441 286.138 88.5094 286.06 87.9857C285.983 87.462 285.781 86.9645 285.472 86.5348C285.163 86.1051 284.755 85.7558 284.283 85.5161C283.811 85.2763 283.288 85.1532 282.759 85.1569C282.229 85.1607 281.709 85.2912 281.24 85.5376C280.771 85.784 280.369 86.139 280.065 86.5731C279.762 87.0071 279.567 87.5074 279.497 88.0322C279.173 87.35 278.625 86.799 277.945 86.4706C277.265 86.1422 276.493 86.056 275.757 86.2264C275.021 86.3967 274.366 86.8134 273.899 87.4073C273.432 88.0012 273.182 88.7367 273.191 89.4921C273.19 89.9755 273.297 90.453 273.504 90.8899C273.711 91.3267 274.013 91.712 274.388 92.0177C273.714 92.3465 273.172 92.8942 272.849 93.5712C272.527 94.2481 272.444 95.0144 272.613 95.7448C272.783 96.4752 273.195 97.1266 273.782 97.5925C274.37 98.0583 275.098 98.3112 275.848 98.3098C276.279 98.3102 276.706 98.2253 277.105 98.0599C277.503 97.8946 277.865 97.652 278.169 97.3463C278.26 98.1674 278.654 98.925 279.274 99.4707C279.894 100.016 280.696 100.311 281.521 100.296C282.347 100.282 283.138 99.959 283.739 99.3917C284.339 98.8244 284.706 98.0533 284.768 97.2295C285.102 97.3444 285.451 97.4084 285.804 97.4192C286.687 97.4192 287.534 97.0686 288.158 96.4443C288.782 95.8201 289.133 94.9735 289.133 94.0907C289.133 93.2079 288.782 92.3613 288.158 91.7371C287.534 91.1128 286.687 90.7622 285.804 90.7622H285.833Z" stroke="#C7C6F8" stroke-width="0.510854" stroke-linecap="round" stroke-linejoin="round"/>
<path d="M280.169 95.682C281.443 95.682 282.476 94.6493 282.476 93.3754C282.476 92.1014 281.443 91.0687 280.169 91.0687C278.895 91.0687 277.862 92.1014 277.862 93.3754C277.862 94.6493 278.895 95.682 280.169 95.682Z" stroke="#C7C6F8" stroke-width="0.510854" stroke-linecap="round" stroke-linejoin="round"/>
<path d="M357.149 111.77C356.888 111.774 356.629 111.808 356.376 111.872C356.704 111.566 356.966 111.195 357.144 110.783C357.322 110.371 357.414 109.927 357.412 109.478C357.452 108.61 357.15 107.761 356.57 107.114C355.991 106.467 355.18 106.074 354.313 106.018C353.446 105.963 352.592 106.25 351.935 106.818C351.278 107.386 350.87 108.189 350.799 109.055C350.585 108.606 350.274 108.211 349.888 107.9C349.501 107.588 349.05 107.367 348.566 107.253C348.083 107.139 347.58 107.135 347.095 107.242C346.61 107.348 346.156 107.562 345.765 107.868C345.373 108.174 345.056 108.564 344.836 109.009C344.616 109.454 344.498 109.943 344.493 110.44C344.487 110.936 344.593 111.428 344.802 111.878C345.012 112.328 345.32 112.725 345.704 113.04C345.155 113.307 344.693 113.722 344.368 114.237C344.042 114.753 343.868 115.35 343.864 115.96C343.865 116.614 344.059 117.253 344.421 117.797C344.784 118.342 345.298 118.768 345.901 119.021C346.503 119.275 347.168 119.346 347.81 119.225C348.453 119.103 349.045 118.795 349.514 118.339C349.606 119.161 350.002 119.918 350.623 120.462C351.245 121.007 352.047 121.3 352.873 121.283C353.699 121.267 354.49 120.942 355.089 120.373C355.688 119.805 356.053 119.032 356.113 118.208C356.445 118.331 356.795 118.395 357.149 118.398C358.032 118.398 358.879 118.047 359.503 117.423C360.127 116.799 360.478 115.952 360.478 115.069C360.478 114.186 360.127 113.34 359.503 112.716C358.879 112.091 358.032 111.741 357.149 111.741V111.77Z" stroke="#C7C6F8" stroke-width="0.510854" stroke-linecap="round" stroke-linejoin="round"/>
<path d="M351.484 116.69C352.758 116.69 353.791 115.657 353.791 114.383C353.791 113.109 352.758 112.076 351.484 112.076C350.21 112.076 349.178 113.109 349.178 114.383C349.178 115.657 350.21 116.69 351.484 116.69Z" stroke="#C7C6F8" stroke-width="0.510854" stroke-linecap="round" stroke-linejoin="round"/>
<path d="M313.819 154.574C315.677 149.524 317.958 144.641 320.637 139.975C324.039 134.617 336.199 133.654 336.199 133.654C336.199 133.654 329.878 143.873 326.958 148.734C324.039 153.596 313.819 154.574 313.819 154.574Z" stroke="#C7C6F8" stroke-width="0.510854" stroke-linecap="round" stroke-linejoin="round"/>
<path d="M313.819 154.574C313.819 154.574 323.06 141.435 333.776 135.114" stroke="#C7C6F8" stroke-width="0.510854" stroke-linecap="round" stroke-linejoin="round"/>
<path d="M173.48 201.933C178.728 200.744 184.065 199.997 189.437 199.699C195.773 199.699 203.233 209.305 203.233 209.305C203.233 209.305 191.204 209.568 185.539 209.772C179.875 209.977 173.48 201.933 173.48 201.933Z" stroke="#C7C6F8" stroke-width="0.510854" stroke-linecap="round" stroke-linejoin="round"/>
<path d="M173.48 201.932C173.48 201.932 189.539 202.531 200.678 208.049" stroke="#C7C6F8" stroke-width="0.510854" stroke-linecap="round" stroke-linejoin="round"/>
<path d="M390.07 190.823C390.07 190.823 387.705 179.83 382.551 180.472C377.398 181.115 381.558 194.049 381.558 194.049C381.558 194.049 374.785 195.976 375.106 198.881C375.427 201.787 380.245 199.363 384.42 198.721C384.42 198.721 382.741 206.268 387.252 207.48C391.763 208.692 390.902 197.524 390.902 197.524C390.902 197.524 400.975 199.582 403.807 195.071C407.092 189.888 394.26 190.166 390.07 190.823Z" stroke="#C7C6F8" stroke-width="0.510854" stroke-linecap="round" stroke-linejoin="round"/>
<path d="M390.07 187.436C390.07 187.436 380.668 201.728 381.223 203.232C381.778 204.736 391.953 190.823 393.646 189.129C395.34 187.436 392.333 184.983 390.07 187.436Z" fill="#263238" stroke="#C7C6F8" stroke-width="0.510854" stroke-linecap="round" stroke-linejoin="round"/>
<path d="M393.646 189.129C393.646 189.129 399.851 183.48 402.858 185.742C405.866 188.005 402.304 188.37 401.924 187.626" stroke="#C7C6F8" stroke-width="0.510854" stroke-linecap="round" stroke-linejoin="round"/>
<path d="M390.639 186.297C390.639 186.297 392.332 178.02 390.449 176.326C388.566 174.633 387.806 176.896 389.135 178.209" stroke="#C7C6F8" stroke-width="0.510854" stroke-linecap="round" stroke-linejoin="round"/>
<path d="M300.68 121.814C295.658 114.514 287.892 121.624 285.804 123.799C283.702 121.624 275.935 114.485 270.913 121.814C265.439 129.77 285.614 146.355 285.804 146.282C285.994 146.209 306.126 129.756 300.68 121.814Z" stroke="#C7C6F8" stroke-width="0.510854" stroke-linecap="round" stroke-linejoin="round"/>
<path d="M231.001 93.3461C225.804 90.2511 223.044 96.8644 222.358 98.7915C220.446 98.047 213.599 95.8717 212.592 101.799C211.482 108.266 228.65 112.792 228.753 112.69C228.855 112.587 236.636 96.7039 231.001 93.3461Z" stroke="#C7C6F8" stroke-width="0.510854" stroke-linecap="round" stroke-linejoin="round"/>
<path d="M182.547 153.552C176.517 153.099 176.984 160.253 177.247 162.311C175.203 162.501 168.108 163.567 169.846 169.348C171.729 175.64 189.131 172.019 189.16 171.888C189.189 171.757 189.087 154.048 182.547 153.552Z" stroke="#C7C6F8" stroke-width="0.510854" stroke-linecap="round" stroke-linejoin="round"/>
<path d="M373.923 248.123C378.711 244.43 373.587 239.364 372.04 238.079C373.5 236.619 378.011 231.043 372.857 227.86C367.251 224.429 356.711 238.736 356.798 238.853C356.886 238.97 368.726 252.123 373.923 248.123Z" stroke="#C7C6F8" stroke-width="0.510854" stroke-linecap="round" stroke-linejoin="round"/>
<path d="M346.011 149.873C349.282 146.837 352.939 144.245 356.887 142.165" stroke="#C7C6F8" stroke-width="0.510854" stroke-linecap="round" stroke-linejoin="round"/>
<path d="M318.93 208.59C318.93 208.59 322.346 179.523 338.346 158.355" stroke="#C7C6F8" stroke-width="0.510854" stroke-linecap="round" stroke-linejoin="round"/>
<path d="M275.775 220.926C277.155 223.062 278.403 225.28 279.513 227.568" stroke="#C7C6F8" stroke-width="0.510854" stroke-linecap="round" stroke-linejoin="round"/>
<path d="M221.424 186.429C223.525 188.107 225.887 189.429 228.417 190.341C239.964 194.721 256.082 199.1 268.622 211.977" stroke="#C7C6F8" stroke-width="0.510854" stroke-linecap="round" stroke-linejoin="round"/>
<path d="M216.007 172.822C215.439 175.884 215.955 179.049 217.467 181.772" stroke="#C7C6F8" stroke-width="0.510854" stroke-linecap="round" stroke-linejoin="round"/>
<path d="M350.915 96.9958C354.585 93.6608 357.6 89.6703 359.806 85.2291" stroke="#C7C6F8" stroke-width="0.510854" stroke-linecap="round" stroke-linejoin="round"/>
<path d="M307.659 139.654C310.037 133.68 313.349 128.122 317.47 123.186C325.776 113.303 334.725 108.587 342.682 103.259" stroke="#C7C6F8" stroke-width="0.510854" stroke-linecap="round" stroke-linejoin="round"/>
<path d="M302.87 163.333C302.869 159.905 303.187 156.484 303.819 153.114" stroke="#C7C6F8" stroke-width="0.510854" stroke-linecap="round" stroke-linejoin="round"/>
<path d="M348.39 222.575C354.463 219.51 362.989 217.203 374.405 218.079C402.873 220.269 416.012 229.028 428.421 212.239" stroke="#C7C6F8" stroke-width="0.510854" stroke-linecap="round" stroke-linejoin="round"/>
<path d="M335.718 233.408C337.028 231.382 338.621 229.553 340.448 227.977" stroke="#C7C6F8" stroke-width="0.510854" stroke-linecap="round" stroke-linejoin="round"/>
<path d="M396.245 156.545H392.347C389.997 156.545 385.705 153.815 387.661 151.464C389.617 149.114 396.245 154.588 396.245 154.588L390.406 136.238L402.902 130.398L407.983 147.581C407.983 147.581 400.172 144.457 399.384 147.961C398.596 151.464 404.464 151.085 407.983 149.523" stroke="#C7C6F8" stroke-width="0.510854" stroke-linecap="round" stroke-linejoin="round"/>
<path d="M391.559 140.136L403.661 134.281" stroke="#C7C6F8" stroke-width="0.510854" stroke-linecap="round" stroke-linejoin="round"/>
<path d="M423.093 150.705H420.523C418.961 150.705 416.144 148.895 417.414 147.347C418.684 145.8 423.093 149.406 423.093 149.406L419.224 137.274L427.487 133.405L430.845 144.763C430.845 144.763 425.677 142.705 425.166 145.026C424.655 147.347 428.523 147.085 430.845 146.048" stroke="#C7C6F8" stroke-width="0.510854" stroke-linecap="round" stroke-linejoin="round"/>
<path d="M419.997 139.858L427.997 135.989" stroke="#C7C6F8" stroke-width="0.510854" stroke-linecap="round" stroke-linejoin="round"/>
<path d="M196.08 137.566H193.51C191.948 137.566 189.131 135.756 190.401 134.208C191.671 132.661 196.08 136.267 196.08 136.267L192.211 124.135L200.474 120.266L203.832 131.624C203.832 131.624 198.664 129.566 198.153 131.887C197.642 134.208 201.511 133.946 203.832 132.909" stroke="#C7C6F8" stroke-width="0.510854" stroke-linecap="round" stroke-linejoin="round"/>
<path d="M192.984 126.719L200.985 122.85" stroke="#C7C6F8" stroke-width="0.510854" stroke-linecap="round" stroke-linejoin="round"/>
<path d="M440.83 178.604C440.83 178.604 451.4 175.421 449.721 169.173C448.261 163.888 443.326 169.173 443.326 169.173C443.326 169.173 446.392 164.209 441.867 161.873C437.341 159.537 436.027 165.932 436.027 165.932C436.027 165.932 435.122 160.005 431.005 162.735C426.888 165.465 435.574 180.093 435.574 180.093L440.83 178.604Z" stroke="#C7C6F8" stroke-width="0.510854" stroke-linecap="round" stroke-linejoin="round"/>
<path d="M427.282 201.159C431.416 194.779 434.212 187.628 435.501 180.136L439.998 166.238" stroke="#C7C6F8" stroke-width="0.510854" stroke-linecap="round" stroke-linejoin="round"/>
<path d="M432.757 190.195C433.195 187.319 432.544 184.383 430.932 181.961C429.32 179.254 427.324 176.795 425.005 174.662C425.005 174.662 423.632 179.684 424.537 182.881C425.443 186.078 432.757 190.195 432.757 190.195Z" stroke="#C7C6F8" stroke-width="0.510854" stroke-linecap="round" stroke-linejoin="round"/>
<path d="M431.399 193.845C433.175 192.32 435.454 191.508 437.794 191.567H446.465C446.465 191.567 435.502 200.239 431.399 193.845Z" stroke="#C7C6F8" stroke-width="0.510854" stroke-linecap="round" stroke-linejoin="round"/>
<path d="M434.1 168.589L435.472 179.392L443.136 173.698" stroke="#C7C6F8" stroke-width="0.510854" stroke-linecap="round" stroke-linejoin="round"/>
<path d="M194.795 225.714C194.795 225.714 187.875 217.13 182.722 221.028C178.342 224.342 185.131 226.955 185.131 226.955C185.131 226.955 179.364 225.992 178.97 231.087C178.576 236.182 184.912 234.868 184.912 234.868C184.912 234.868 179.758 237.948 183.846 240.707C187.934 243.466 198.211 229.933 198.211 229.933L194.795 225.714Z" stroke="#C7C6F8" stroke-width="0.510854" stroke-linecap="round" stroke-linejoin="round"/>
<path d="M220.766 229.729C213.306 228.296 205.632 228.395 198.211 230.021L183.612 231.101" stroke="#C7C6F8" stroke-width="0.510854" stroke-linecap="round" stroke-linejoin="round"/>
<path d="M208.547 228.78C205.72 229.457 203.248 231.165 201.613 233.568C199.712 236.084 198.187 238.862 197.087 241.817C197.087 241.817 202.255 241.204 204.868 239.145C207.481 237.087 208.547 228.78 208.547 228.78Z" stroke="#C7C6F8" stroke-width="0.510854" stroke-linecap="round" stroke-linejoin="round"/>
<path d="M212.445 228.678C210.361 227.609 208.748 225.803 207.92 223.612C206.387 219.802 204.664 215.568 204.664 215.568C204.664 215.568 216.825 222.459 212.445 228.678Z" stroke="#C7C6F8" stroke-width="0.510854" stroke-linecap="round" stroke-linejoin="round"/>
<path d="M188.036 235.671L197.525 230.327L189.365 225.378" stroke="#C7C6F8" stroke-width="0.510854" stroke-linecap="round" stroke-linejoin="round"/>
<path d="M265.409 189.013C264.973 188.015 264.486 187.041 263.95 186.093C261.336 181.29 257.497 177.071 251.467 177.932C241.248 179.392 260.227 195.451 263.643 195.932C267.847 196.531 266.767 192.254 265.409 189.013Z" fill="#ED893E"/>
<path d="M257.628 128.675C257.103 127.434 256.548 126.354 256.168 125.756C253.54 120.938 249.716 116.733 243.686 117.595C233.467 119.055 252.446 135.113 255.862 135.595C260.066 136.194 258.986 131.902 257.628 128.675Z" fill="#ED893E"/>
<path d="M360.346 194.94C359.047 195.319 357.908 195.757 357.28 196.005C352.2 198.049 347.572 201.378 347.733 207.466C348.01 217.787 366.142 200.779 367.018 197.436C368.083 193.392 363.704 193.991 360.346 194.94Z" fill="#ED893E"/>
<path d="M373.486 140.442C372.446 140.744 371.423 141.1 370.42 141.508C365.339 143.552 360.712 146.866 360.872 152.953C361.15 163.275 379.281 146.267 380.157 142.939C381.223 138.88 376.843 139.464 373.486 140.442Z" fill="#ED893E"/>
<path d="M448.304 137.055C447.268 137.352 446.249 137.708 445.253 138.121C440.173 140.165 435.545 143.479 435.705 149.566C435.983 159.888 454.114 142.88 454.99 139.552C456.056 135.449 451.676 136.033 448.304 137.055Z" fill="#ED893E"/>
<path d="M243.146 186.691C242.943 186.193 242.714 185.706 242.46 185.231C241.19 182.896 239.321 180.852 236.372 181.246C231.379 181.961 240.65 189.801 242.314 190.005C244.343 190.356 243.818 188.268 243.146 186.691Z" fill="#ED893E"/>
<path d="M207.51 148.822C207.014 148.399 206.518 148.048 206.255 147.858C204.05 146.325 201.466 145.333 199.028 147.026C194.882 149.946 206.678 152.749 208.27 152.223C210.167 151.566 208.81 149.946 207.51 148.822Z" fill="#ED893E"/>
<path d="M260.183 166.735C259.981 166.236 259.752 165.749 259.497 165.275C258.212 162.924 256.344 160.895 253.409 161.289C248.417 162.005 257.687 169.83 259.351 170.049C261.366 170.414 260.84 168.311 260.183 166.735Z" fill="#ED893E"/>
<path d="M174.24 133.858C174.04 133.358 173.811 132.871 173.554 132.398C172.284 130.048 170.415 128.019 167.466 128.413C162.473 129.128 171.743 136.968 173.408 137.172C175.437 137.522 174.911 135.435 174.24 133.858Z" fill="#ED893E"/>
<path d="M197.466 184.998C196.995 184.712 196.508 184.454 196.007 184.224C193.612 183.056 190.897 182.472 188.707 184.516C185.057 188.005 197.16 188.998 198.649 188.224C200.576 187.29 198.926 185.888 197.466 184.998Z" fill="#ED893E"/>
<path d="M255.803 109.317C255.6 108.819 255.371 108.332 255.117 107.857C253.832 105.522 251.964 103.478 249.029 103.872C244.037 104.587 253.307 112.427 254.971 112.631C256.986 112.982 256.46 110.894 255.803 109.317Z" fill="#ED893E"/>
<path d="M310.71 168.647C310.316 169.158 309.98 169.654 309.805 169.932C308.345 172.18 307.454 174.822 309.25 177.231C312.287 181.261 314.681 169.362 314.082 167.786C313.352 165.829 311.776 167.304 310.71 168.647Z" fill="#ED893E"/>
<path d="M334.068 199.305C333.674 199.816 333.338 200.312 333.163 200.589C331.703 202.838 330.813 205.48 332.608 207.889C335.645 211.918 338.039 200.02 337.441 198.443C336.711 196.487 335.134 197.962 334.068 199.305Z" fill="#ED893E"/>
<path d="M366.594 119.537C366.099 119.671 365.612 119.832 365.134 120.018C362.638 120.967 360.346 122.544 360.36 125.507C360.36 130.544 369.412 122.442 369.879 120.821C370.39 118.777 368.258 119.011 366.594 119.537Z" fill="#ED893E"/>
<path d="M310.214 101.186C309.747 101.638 309.338 102.076 309.119 102.324C307.352 104.324 306.053 106.792 307.469 109.405C309.849 113.785 314.024 102.456 313.688 100.821C313.265 98.8061 311.469 100.018 310.214 101.186Z" fill="#ED893E"/>
<path d="M209.555 204.21C209.934 204.573 210.334 204.914 210.752 205.232C212.868 206.882 215.409 208.006 217.934 206.444C222.212 203.801 210.635 200.327 208.971 200.779C207 201.29 208.314 202.998 209.555 204.21Z" fill="#ED893E"/>
<path d="M391.953 120.077C391.311 120.077 390.712 120.077 390.377 120.077C387.705 120.237 385.048 121.055 384.172 123.887C382.712 128.705 393.734 123.668 394.654 122.266C395.778 120.558 393.676 120.15 391.953 120.077Z" fill="#ED893E"/>
</svg>
