<svg width="57" height="57" viewBox="0 0 57 57" fill="none" xmlns="http://www.w3.org/2000/svg">
<circle cx="28.499" cy="28.5" r="25.0361" fill="#181818"/>
<path d="M34.5931 14.0328C36.0834 12.7958 38.3083 14.0804 37.9822 15.9895L36.359 25.4918C36.2564 26.092 36.4212 26.7071 36.8101 27.1756L42.967 34.5933C44.204 36.0835 42.9195 38.3085 41.0104 37.9823L31.508 36.3591C30.9078 36.2566 30.2928 36.4214 29.8242 36.8103L22.4066 42.9672C20.9163 44.2042 18.6914 42.9196 19.0175 41.0105L20.6407 31.5082C20.7432 30.908 20.5784 30.2929 20.1895 29.8244L14.0326 22.4067C12.7956 20.9165 14.0802 18.6915 15.9893 19.0177L25.4916 20.6409C26.0918 20.7434 26.7069 20.5786 27.1755 20.1897L34.5931 14.0328Z" fill="#C7C6F8"/>
</svg>
